<svg width="1024" height="1024" viewBox="0 0 1024 1024" xmlns="http://www.w3.org/2000/svg">
  <defs>
    <linearGradient id="bgGradient" x1="0%" y1="0%" x2="100%" y2="100%">
      <stop offset="0%" stop-color="#0F1626"/>
      <stop offset="100%" stop-color="#2E8CDD"/>
    </linearGradient>
    <linearGradient id="blockGradientA" x1="0%" y1="0%" x2="100%" y2="100%">
      <stop offset="0%" stop-color="#58C6FF"/>
      <stop offset="100%" stop-color="#2A8CF1"/>
    </linearGradient>
    <linearGradient id="blockGradientB" x1="0%" y1="0%" x2="100%" y2="100%">
      <stop offset="0%" stop-color="#FF7AB3"/>
      <stop offset="100%" stop-color="#FF4D8D"/>
    </linearGradient>
    <linearGradient id="blockGradientC" x1="0%" y1="0%" x2="100%" y2="100%">
      <stop offset="0%" stop-color="#7AF0B1"/>
      <stop offset="100%" stop-color="#3BD986"/>
    </linearGradient>
    <linearGradient id="blockGradientD" x1="0%" y1="0%" x2="100%" y2="100%">
      <stop offset="0%" stop-color="#FCD253"/>
      <stop offset="100%" stop-color="#F79D3E"/>
    </linearGradient>
    <linearGradient id="blockGradientE" x1="0%" y1="0%" x2="100%" y2="100%">
      <stop offset="0%" stop-color="#AD7CFF"/>
      <stop offset="100%" stop-color="#7E4DFF"/>
    </linearGradient>
    <filter id="softShadow" x="-20%" y="-20%" width="140%" height="140%" filterUnits="objectBoundingBox">
      <feDropShadow dx="0" dy="18" stdDeviation="16" flood-color="#000000" flood-opacity="0.35"/>
    </filter>
  </defs>
  <rect width="1024" height="1024" fill="url(#bgGradient)" rx="210"/>
  <g filter="url(#softShadow)">
    <rect x="274" y="278" width="220" height="220" rx="48" fill="url(#blockGradientA)"/>
    <rect x="514" y="278" width="220" height="220" rx="48" fill="url(#blockGradientB)"/>
    <rect x="274" y="518" width="220" height="220" rx="48" fill="url(#blockGradientC)"/>
    <rect x="514" y="518" width="220" height="220" rx="48" fill="url(#blockGradientD)"/>
    <rect x="754" y="518" width="220" height="220" rx="48" fill="url(#blockGradientE)"/>
  </g>
  <rect x="188" y="188" width="648" height="648" rx="130" stroke="rgba(255,255,255,0.14)" stroke-width="24" fill="none"/>
</svg>
